<svg width="720" height="860" viewBox="0 0 720 860" fill="none" xmlns="http://www.w3.org/2000/svg">
<path d="M690 710.746C704.081 669.021 706.714 576.325 651.812 539.03C596.909 501.734 499.471 518.013 463 539.03C426.529 560.047 292.5 569 312 501.246C338.56 408.959 350.5 372.746 284 395.246C217.5 417.746 246.477 357.629 172 367.746C112.419 375.839 52 464.746 1 360.746" stroke="#3DA0A7"/>
<path d="M204.118 126.15C220.335 149.063 200.98 168.828 186.698 169.553C135.339 171.599 147.587 151.846 152.183 119.614C156.779 87.3822 187.901 103.237 204.118 126.15Z" stroke="#3DA0A7"/>
<path d="M347.26 6.75961C353.419 12.1445 363.032 31.473 352.217 65.7083C338.698 108.502 311.736 196.658 371.691 202.593C431.646 208.529 477.355 189.192 468.984 166.957C460.613 144.723 412.24 160.927 427.548 222.139C442.857 283.351 523.498 315.011 583.919 271.472" stroke="#3DA0A7"/>
</svg>
